<svg width="0" height="0" fill="none" style="visibility: hidden; position: absolute;" aria-hidden="true">
    <symbol id="email" width="24" height="24" viewBox="0 0 24 24" fill="none" xmlns="http://www.w3.org/2000/svg">
        <path d="M20 4H4C2.9 4 2.01 4.9 2.01 6L2 18C2 19.1 2.9 20 4 20H20C21.1 20 22 19.1 22 18V6C22 4.9 21.1 4 20 4ZM19.6 8.25L12.53 12.67C12.21 12.87 11.79 12.87 11.47 12.67L4.4 8.25C4.29973 8.19371 4.21192 8.11766 4.14189 8.02645C4.07186 7.93525 4.02106 7.83078 3.99258 7.71937C3.96409 7.60796 3.9585 7.49194 3.97616 7.37831C3.99381 7.26468 4.03434 7.15581 4.09528 7.0583C4.15623 6.96079 4.23632 6.87666 4.33073 6.811C4.42513 6.74533 4.53187 6.69951 4.6445 6.6763C4.75712 6.65309 4.87328 6.65297 4.98595 6.67595C5.09863 6.69893 5.20546 6.74453 5.3 6.81L12 11L18.7 6.81C18.7945 6.74453 18.9014 6.69893 19.014 6.67595C19.1267 6.65297 19.2429 6.65309 19.3555 6.6763C19.4681 6.69951 19.5749 6.74533 19.6693 6.811C19.7637 6.87666 19.8438 6.96079 19.9047 7.0583C19.9657 7.15581 20.0062 7.26468 20.0238 7.37831C20.0415 7.49194 20.0359 7.60796 20.0074 7.71937C19.9789 7.83078 19.9281 7.93525 19.8581 8.02645C19.7881 8.11766 19.7003 8.19371 19.6 8.25Z" fill="#784CDB"/>
    </symbol>
    <symbol id="instagram" width="24" height="24" viewBox="0 0 24 24" fill="none" xmlns="http://www.w3.org/2000/svg">
        <path d="M13.028 2C14.153 2.003 14.724 2.009 15.217 2.023L15.411 2.03C15.635 2.038 15.856 2.048 16.123 2.06C17.187 2.11 17.913 2.278 18.55 2.525C19.21 2.779 19.766 3.123 20.322 3.678C20.8307 4.17773 21.2242 4.78247 21.475 5.45C21.722 6.087 21.89 6.813 21.94 7.878C21.952 8.144 21.962 8.365 21.97 8.59L21.976 8.784C21.991 9.276 21.997 9.847 21.999 10.972L22 11.718V13.028C22.0024 13.7574 21.9948 14.4868 21.977 15.216L21.971 15.41C21.963 15.635 21.953 15.856 21.941 16.122C21.891 17.187 21.721 17.912 21.475 18.55C21.2242 19.2175 20.8307 19.8223 20.322 20.322C19.8223 20.8307 19.2175 21.2242 18.55 21.475C17.913 21.722 17.187 21.89 16.123 21.94L15.411 21.97L15.217 21.976C14.724 21.99 14.153 21.997 13.028 21.999L12.282 22H10.973C10.2432 22.0026 9.51351 21.9949 8.78399 21.977L8.58999 21.971C8.3526 21.962 8.11526 21.9517 7.87799 21.94C6.81399 21.89 6.08799 21.722 5.44999 21.475C4.78282 21.2241 4.17843 20.8306 3.67899 20.322C3.16993 19.8224 2.7761 19.2176 2.52499 18.55C2.27799 17.913 2.10999 17.187 2.05999 16.122L2.02999 15.41L2.02499 15.216C2.00656 14.4868 1.99822 13.7574 1.99999 13.028V10.972C1.99722 10.2426 2.00456 9.5132 2.02199 8.784L2.02899 8.59C2.03699 8.365 2.04699 8.144 2.05899 7.878C2.10899 6.813 2.27699 6.088 2.52399 5.45C2.77568 4.7822 3.17021 4.17744 3.67999 3.678C4.17914 3.16955 4.78318 2.77607 5.44999 2.525C6.08799 2.278 6.81299 2.11 7.87799 2.06C8.14399 2.048 8.36599 2.038 8.58999 2.03L8.78399 2.024C9.51318 2.00623 10.2426 1.99857 10.972 2.001L13.028 2ZM12 7C10.6739 7 9.40214 7.52678 8.46446 8.46447C7.52677 9.40215 6.99999 10.6739 6.99999 12C6.99999 13.3261 7.52677 14.5979 8.46446 15.5355C9.40214 16.4732 10.6739 17 12 17C13.3261 17 14.5978 16.4732 15.5355 15.5355C16.4732 14.5979 17 13.3261 17 12C17 10.6739 16.4732 9.40215 15.5355 8.46447C14.5978 7.52678 13.3261 7 12 7ZM12 9C12.394 8.99993 12.7841 9.07747 13.1481 9.22817C13.5121 9.37887 13.8428 9.5998 14.1215 9.87833C14.4001 10.1569 14.6211 10.4875 14.7719 10.8515C14.9228 11.2154 15.0004 11.6055 15.0005 11.9995C15.0006 12.3935 14.923 12.7836 14.7723 13.1476C14.6216 13.5116 14.4007 13.8423 14.1222 14.121C13.8436 14.3996 13.513 14.6206 13.149 14.7714C12.785 14.9223 12.395 14.9999 12.001 15C11.2053 15 10.4423 14.6839 9.87967 14.1213C9.31706 13.5587 9.00099 12.7956 9.00099 12C9.00099 11.2044 9.31706 10.4413 9.87967 9.87868C10.4423 9.31607 11.2053 9 12.001 9M17.251 5.5C16.9195 5.5 16.6015 5.6317 16.3671 5.86612C16.1327 6.10054 16.001 6.41848 16.001 6.75C16.001 7.08152 16.1327 7.39946 16.3671 7.63388C16.6015 7.8683 16.9195 8 17.251 8C17.5825 8 17.9005 7.8683 18.1349 7.63388C18.3693 7.39946 18.501 7.08152 18.501 6.75C18.501 6.41848 18.3693 6.10054 18.1349 5.86612C17.9005 5.6317 17.5825 5.5 17.251 5.5Z" fill="#784CDB"/>
    </symbol>
    <symbol id="linkedin" width="24" height="24" viewBox="0 0 24 24" fill="none" xmlns="http://www.w3.org/2000/svg">
        <path fill-rule="evenodd" clip-rule="evenodd" d="M18.6667 2C19.5507 2 20.3986 2.35119 21.0237 2.97631C21.6488 3.60143 22 4.44928 22 5.33333V18.6667C22 19.5507 21.6488 20.3986 21.0237 21.0237C20.3986 21.6488 19.5507 22 18.6667 22H5.33333C4.44928 22 3.60143 21.6488 2.97631 21.0237C2.35119 20.3986 2 19.5507 2 18.6667V5.33333C2 4.44928 2.35119 3.60143 2.97631 2.97631C3.60143 2.35119 4.44928 2 5.33333 2H18.6667ZM7.55556 9.77778C7.26087 9.77778 6.97826 9.89484 6.76988 10.1032C6.56151 10.3116 6.44444 10.5942 6.44444 10.8889V16.4444C6.44444 16.7391 6.56151 17.0217 6.76988 17.2301C6.97826 17.4385 7.26087 17.5556 7.55556 17.5556C7.85024 17.5556 8.13286 17.4385 8.34123 17.2301C8.5496 17.0217 8.66667 16.7391 8.66667 16.4444V10.8889C8.66667 10.5942 8.5496 10.3116 8.34123 10.1032C8.13286 9.89484 7.85024 9.77778 7.55556 9.77778ZM10.8889 8.66667C10.5942 8.66667 10.3116 8.78373 10.1032 8.9921C9.89484 9.20048 9.77778 9.48309 9.77778 9.77778V16.4444C9.77778 16.7391 9.89484 17.0217 10.1032 17.2301C10.3116 17.4385 10.5942 17.5556 10.8889 17.5556C11.1836 17.5556 11.4662 17.4385 11.6746 17.2301C11.8829 17.0217 12 16.7391 12 16.4444V12.3778C12.3389 11.9956 12.9111 11.5467 13.5478 11.2744C13.9178 11.1167 14.4744 11.0522 14.8611 11.1744C14.9894 11.207 15.1036 11.2803 15.1867 11.3833C15.2444 11.4611 15.3333 11.6344 15.3333 12V16.4444C15.3333 16.7391 15.4504 17.0217 15.6588 17.2301C15.8671 17.4385 16.1498 17.5556 16.4444 17.5556C16.7391 17.5556 17.0217 17.4385 17.2301 17.2301C17.4385 17.0217 17.5556 16.7391 17.5556 16.4444V12C17.5556 11.2556 17.3667 10.5933 16.9733 10.0622C16.6114 9.58062 16.1048 9.22747 15.5278 9.05444C14.5256 8.74 13.4156 8.91444 12.6744 9.23222C12.4372 9.33427 12.2061 9.45002 11.9822 9.57889C11.9356 9.32288 11.8007 9.09133 11.6009 8.92463C11.4011 8.75792 11.1491 8.66663 10.8889 8.66667ZM7.55556 6.44444C7.26087 6.44444 6.97826 6.56151 6.76988 6.76988C6.56151 6.97826 6.44444 7.26087 6.44444 7.55556C6.44444 7.85024 6.56151 8.13286 6.76988 8.34123C6.97826 8.5496 7.26087 8.66667 7.55556 8.66667C7.85024 8.66667 8.13286 8.5496 8.34123 8.34123C8.5496 8.13286 8.66667 7.85024 8.66667 7.55556C8.66667 7.26087 8.5496 6.97826 8.34123 6.76988C8.13286 6.56151 7.85024 6.44444 7.55556 6.44444Z" fill="#784CDB"/>
    </symbol>
    <symbol id="telegram" width="24" height="24" viewBox="0 0 24 24" fill="none" xmlns="http://www.w3.org/2000/svg">
        <path d="M12 2C6.48 2 2 6.48 2 12C2 17.52 6.48 22 12 22C17.52 22 22 17.52 22 12C22 6.48 17.52 2 12 2ZM16.64 8.8C16.49 10.38 15.84 14.22 15.51 15.99C15.37 16.74 15.09 16.99 14.83 17.02C14.25 17.07 13.81 16.64 13.25 16.27C12.37 15.69 11.87 15.33 11.02 14.77C10.03 14.12 10.67 13.76 11.24 13.18C11.39 13.03 13.95 10.7 14 10.49C14.0069 10.4582 14.006 10.4252 13.9973 10.3938C13.9886 10.3624 13.9724 10.3337 13.95 10.31C13.89 10.26 13.81 10.28 13.74 10.29C13.65 10.31 12.25 11.24 9.52 13.08C9.12 13.35 8.76 13.49 8.44 13.48C8.08 13.47 7.4 13.28 6.89 13.11C6.26 12.91 5.77 12.8 5.81 12.45C5.83 12.27 6.08 12.09 6.55 11.9C9.47 10.63 11.41 9.79 12.38 9.39C15.16 8.23 15.73 8.03 16.11 8.03C16.19 8.03 16.38 8.05 16.5 8.15C16.6 8.23 16.63 8.34 16.64 8.42C16.63 8.48 16.65 8.66 16.64 8.8Z" fill="#784CDB"/>
    </symbol>
</svg>