<svg width="16" height="16" viewBox="0 0 16 16" fill="none" xmlns="http://www.w3.org/2000/svg">
<path d="M3.33333 2.16667C2.8471 2.16667 2.38079 2.35982 2.03697 2.70364C1.69315 3.04745 1.5 3.51377 1.5 4V12C1.5 12.4862 1.69315 12.9525 2.03697 13.2964C2.38079 13.6402 2.8471 13.8333 3.33333 13.8333H12.6667C13.1529 13.8333 13.6192 13.6402 13.963 13.2964C14.3068 12.9525 14.5 12.4862 14.5 12V6C14.5 5.51377 14.3068 5.04745 13.963 4.70364C13.6192 4.35982 13.1529 4.16667 12.6667 4.16667H7.77333C7.57059 4.16663 7.37481 4.09268 7.22267 3.95867L5.708 2.624C5.37329 2.3293 4.94263 2.16671 4.49667 2.16667H3.33333Z" fill="#784CDB"/>
</svg>
