<svg width="24" height="24" viewBox="0 0 24 24" fill="none" xmlns="http://www.w3.org/2000/svg">
<path d="M3 3L21 21" stroke="#784CDB" stroke-width="2" stroke-linecap="round" stroke-linejoin="round"/>
<path fill-rule="evenodd" clip-rule="evenodd" d="M5.39999 6.23C4.95999 6.56 4.55699 6.908 4.18999 7.262C2.96434 8.45235 1.94959 9.84208 1.18899 11.372C1.09427 11.5676 1.04507 11.7822 1.04507 11.9995C1.04507 12.2168 1.09427 12.4314 1.18899 12.627C1.9492 14.1572 2.9636 15.5473 4.18899 16.738C5.93999 18.423 8.51799 20 12 20C14.236 20 16.1 19.35 17.61 18.438L13.666 14.495C13.0889 14.8805 12.396 15.054 11.7054 14.9859C11.0147 14.9178 10.369 14.6124 9.87832 14.1217C9.38759 13.6309 9.08218 12.9853 9.0141 12.2946C8.94603 11.604 9.11951 10.9111 9.50499 10.334L5.40099 6.229L5.39999 6.23ZM20.666 15.838C21.5163 14.8649 22.2372 13.7859 22.811 12.628C22.9057 12.4324 22.9549 12.2178 22.9549 12.0005C22.9549 11.7832 22.9057 11.5686 22.811 11.373C22.0508 9.8428 21.0364 8.45273 19.811 7.262C18.06 5.577 15.483 4 12 4C11.0521 3.99725 10.108 4.1193 9.19199 4.363L20.666 15.838Z" fill="#784CDB"/>
</svg>
