<svg width="24" height="24" viewBox="0 0 24 24" fill="none" xmlns="http://www.w3.org/2000/svg">
<path d="M12.5 2H6.96428C6.3486 2 5.75814 2.24458 5.32278 2.67993C4.88743 3.11528 4.64285 3.70575 4.64285 4.32143V19.6786C4.64285 20.2943 4.88743 20.8847 5.32278 21.3201C5.75814 21.7554 6.3486 22 6.96428 22H18.0357C18.6514 22 19.2419 21.7554 19.6772 21.3201C20.1126 20.8847 20.3571 20.2943 20.3571 19.6786V9.85714H14.8214C14.2057 9.85714 13.6153 9.61256 13.1799 9.17721C12.7446 8.74186 12.5 8.1514 12.5 7.53571V2ZM20.2593 8.42857C20.149 8.06013 19.949 7.72485 19.6771 7.45286L14.9043 2.68C14.6324 2.40787 14.2971 2.20758 13.9286 2.09714V7.53571C13.9286 8.02857 14.3286 8.42857 14.8214 8.42857H20.2593Z" fill="#784CDB"/>
</svg>
