<svg width="16" height="16" viewBox="0 0 16 16" fill="none" xmlns="http://www.w3.org/2000/svg">
<path d="M14.7475 10.4098H5.73501M5.73501 10.4098C5.73501 10.8315 5.56674 11.236 5.26851 11.5342C4.97029 11.8325 4.56581 12 4.14406 12C3.7223 12 3.31782 11.8325 3.0196 11.5342C2.72137 11.236 2.55383 10.8315 2.55383 10.4098M5.73501 10.4098C5.73501 9.98802 5.56674 9.58354 5.26851 9.28532C4.97029 8.98709 4.56581 8.81955 4.14406 8.81955C3.7223 8.81955 3.31782 8.98709 3.0196 9.28532C2.72137 9.58354 2.55383 9.98802 2.55383 10.4098M2.55383 10.4098H1.25247M14.7475 5.59023H12.4825M12.4825 5.59023C12.4825 5.79906 12.4407 6.00584 12.3607 6.19878C12.2808 6.39171 12.1637 6.56702 12.016 6.71468C11.8684 6.86235 11.6931 6.97949 11.5001 7.0594C11.3072 7.13932 11.1004 7.18045 10.8916 7.18045C10.4698 7.18045 10.0653 7.01291 9.76711 6.71468C9.46889 6.41646 9.30134 6.01198 9.30134 5.59023M12.4825 5.59023C12.4825 5.38139 12.4407 5.17461 12.3607 4.98167C12.2808 4.78874 12.1637 4.61343 12.016 4.46577C11.8684 4.3181 11.6931 4.20097 11.5001 4.12105C11.3072 4.04113 11.1004 4 10.8916 4C10.4698 4 10.0653 4.16754 9.76711 4.46577C9.46889 4.76399 9.30134 5.16847 9.30134 5.59023M9.30134 5.59023H1.25247" stroke="black" stroke-miterlimit="10" stroke-linecap="round"/>
</svg>
