<svg xmlns="http://www.w3.org/2000/svg" fill="currentColor" viewBox="0 0 22 20"><path stroke="currentColor" stroke-linecap="round" stroke-linejoin="round" stroke-width="2" d="M1.95493 1 19.9549 19"/><path fill-rule="evenodd" d="M4.35491 4.23c-.44.33-.843.678-1.21 1.032a15.0999 15.0999 0 0 0-3.000998 4.11 1.44 1.44 0 0 0 0 1.255c.760209 1.5302 1.774618 2.9203 2.999998 4.111C4.89491 16.423 7.47291 18 10.9549 18c2.236 0 4.1-.65 5.61-1.562l-3.944-3.943c-.5771.3855-1.27.559-1.9606.4909-.69065-.0681-1.33633-.3735-1.82706-.8642-.49073-.4908-.79614-1.1364-.86421-1.8271-.06807-.69063.1054-1.38351.49088-1.9606l-4.104-4.105zm15.26599 9.608c.8503-.9731 1.5713-2.0521 2.145-3.21.0947-.1956.1439-.4102.1439-.6275 0-.21735-.0492-.43187-.1439-.6275a15.0994 15.0994 0 0 0-3-4.111C17.0149 3.577 14.4379 2 10.9549 2a10.7997 10.7997 0 0 0-2.80799.363z" clip-rule="evenodd"/></svg>