<svg xmlns="http://www.w3.org/2000/svg" fill="currentColor" viewBox="0 0 24 24"><path fill-rule="evenodd" d="M12 2c5.523 0 10 4.477 10 10s-4.477 10-10 10c-1.73 0-3.358-.44-4.778-1.214l-4.41.74a.697.697 0 0 1-.804-.793l.744-4.92A10 10 0 0 1 2 12C2 6.477 6.478 2 12 2M8.226 7.07c-.683 0-1.25.577-1.144 1.29.201 1.335.795 3.796 2.56 5.575 1.846 1.86 4.487 2.655 5.916 2.968.74.163 1.372-.423 1.372-1.146V14.06a.28.28 0 0 0-.178-.26l-1.823-.7a.3.3 0 0 0-.155-.014l-1.839.36c-1.186-.614-1.904-1.303-2.335-2.34l.346-1.874a.3.3 0 0 0-.013-.15l-.684-1.83a.28.28 0 0 0-.26-.182z" clip-rule="evenodd"/></svg>