<svg xmlns="http://www.w3.org/2000/svg" fill="currentColor" viewBox="0 0 15 17">
  <path d="M13.8145.5316a2.838 2.838 0 0 0-2.1167-.4935 2.837 2.837 0 0 0-1.845 1.1497L2.6884 11.2014a2.03 2.03 0 0 0-.3861 1.5294 2.032 2.032 0 0 0 .824 1.3445 2.028 2.028 0 0 0 1.5369.348 2.028 2.028 0 0 0 1.3218-.8587l5.0584-7.0695-.6595-.4735-5.0576 7.0712a1.216 1.216 0 0 1-1.697.2818 1.218 1.218 0 0 1-.4919-.7922 1.22 1.22 0 0 1 .212-.9084l7.1627-10.0135h.0016l-.0016-.0016a2.031 2.031 0 0 1 2.831-.4678 2.0366 2.0366 0 0 1 .4672 2.8343v-.0016l-7.852 10.9767a2.8414 2.8414 0 0 1-3.9617.6578 2.8505 2.8505 0 0 1-.6546-3.968l5.7065-7.9768-.6595-.4726-5.7065 7.9767a3.655 3.655 0 0 0-.6334 2.7239 3.66 3.66 0 0 0 .5025 1.3341 3.65 3.65 0 0 0 .9745 1.0397 3.644 3.644 0 0 0 4.0527.1336c.407-.2534.76-.5848 1.039-.9749l7.8521-10.9767a2.845 2.845 0 0 0 .4918-2.119A2.843 2.843 0 0 0 13.8129.5315z"/>
</svg>
