<svg xmlns="http://www.w3.org/2000/svg" fill="currentColor" viewBox="0 0 12 10"><path d="M.667 2.667a.64.64 0 0 1-.475-.192A.65.65 0 0 1 0 2V.667Q0 .383.192.192A.65.65 0 0 1 .667 0H2q.283 0 .475.192a.64.64 0 0 1 .192.475V2a.65.65 0 0 1-.192.475.64.64 0 0 1-.475.192zm3.333 0a.64.64 0 0 1-.475-.192A.65.65 0 0 1 3.333 2V.667q0-.284.192-.475A.65.65 0 0 1 4 0h7.333q.284 0 .476.192A.64.64 0 0 1 12 .667V2a.65.65 0 0 1-.192.475.64.64 0 0 1-.475.192zM4 6a.64.64 0 0 1-.475-.192.65.65 0 0 1-.192-.475V4q0-.283.192-.475A.65.65 0 0 1 4 3.333h7.333q.284 0 .476.192A.64.64 0 0 1 12 4v1.333a.65.65 0 0 1-.192.476.64.64 0 0 1-.475.191zm0 3.333a.64.64 0 0 1-.475-.192.65.65 0 0 1-.192-.474V7.333q0-.284.192-.474A.65.65 0 0 1 4 6.667h7.333q.284 0 .476.192a.64.64 0 0 1 .191.474v1.334a.65.65 0 0 1-.192.475.64.64 0 0 1-.475.191zm-3.333 0a.64.64 0 0 1-.475-.192A.65.65 0 0 1 0 8.667V7.333q0-.284.192-.474a.65.65 0 0 1 .475-.192H2q.283 0 .475.192a.64.64 0 0 1 .192.474v1.334a.65.65 0 0 1-.192.475.64.64 0 0 1-.475.191zM.667 6a.64.64 0 0 1-.475-.192A.65.65 0 0 1 0 5.333V4q0-.283.192-.475a.65.65 0 0 1 .475-.192H2q.283 0 .475.192A.64.64 0 0 1 2.667 4v1.333a.65.65 0 0 1-.192.476A.64.64 0 0 1 2 6z"/></svg>