<svg xmlns="http://www.w3.org/2000/svg" fill="currentColor" viewBox="0 0 16 16"><g clip-path="url(#a)"><path d="M14.998 6.17v.052c0 .602 0 .903-.145 1.15s-.409.392-.935.686l-.555.308c.382-1.294.51-2.684.557-3.873l.007-.154.001-.037c.456.158.712.277.872.498.198.275.198.64.198 1.37m-14 0v.052c0 .602 0 .903.145 1.15s.409.392.935.686l.556.308c-.383-1.294-.511-2.684-.558-3.873l-.007-.154v-.037c-.457.158-.713.277-.873.498-.198.275-.198.641-.198 1.37"/><path fill-rule="evenodd" d="M7.998 1.41c1.277 0 2.328.111 3.132.247.815.138 1.223.207 1.563.626s.322.872.287 1.778c-.124 3.113-.795 7-4.445 7.343v2.53h1.023a.716.716 0 0 1 .701.575l.136.676h1.897a.537.537 0 0 1 0 1.074H3.704a.537.537 0 0 1 0-1.074H5.6l.136-.677a.716.716 0 0 1 .702-.575H7.46v-2.529c-3.65-.344-4.321-4.231-4.444-7.343-.037-.906-.055-1.36.286-1.778.34-.42.747-.488 1.562-.626a19 19 0 0 1 3.133-.248m.681 3.004-.07-.126c-.272-.489-.408-.732-.611-.732s-.34.243-.611.732l-.07.126c-.078.139-.116.208-.177.253s-.135.063-.286.097l-.136.032c-.528.12-.792.178-.855.38s.117.413.477.834l.093.109c.103.12.154.179.177.253s.015.154 0 .314l-.014.145c-.055.562-.082.843.082.967.165.125.412.011.907-.216l.127-.059c.141-.064.211-.097.286-.097s.144.033.285.097l.128.059c.494.228.742.341.907.216.164-.124.136-.405.082-.967l-.014-.145c-.016-.16-.023-.24 0-.314.022-.074.074-.134.176-.253l.093-.109c.36-.42.54-.631.478-.834s-.327-.26-.856-.38l-.136-.032c-.15-.034-.225-.05-.286-.097-.06-.045-.099-.114-.176-.253" clip-rule="evenodd"/></g><defs><clipPath id="a"><path fill="#fff" d="M0 0h16v16H0z"/></clipPath></defs></svg>