<svg xmlns="http://www.w3.org/2000/svg" fill="currentColor" viewBox="0 0 24 24"><path d="M12 2a10 10 0 1 0 0 20 10 10 0 0 0 0-20m4.64 6.8c-.15 1.58-.8 5.42-1.13 7.19-.14.75-.42 1-.68 1.03-.58.05-1.02-.38-1.58-.75l-2.23-1.5c-.99-.65-.35-1.01.22-1.59.15-.15 2.71-2.48 2.76-2.69a.2.2 0 0 0-.05-.18c-.06-.05-.14-.03-.21-.02q-.13.03-4.22 2.79-.6.41-1.08.4a7 7 0 0 1-1.55-.37c-.63-.2-1.12-.31-1.08-.66q.03-.27.74-.55 4.38-1.9 5.83-2.51c2.78-1.16 3.35-1.36 3.73-1.36.08 0 .27.02.39.12q.14.13.14.27z"/></svg>