<svg xmlns="http://www.w3.org/2000/svg" fill="currentColor" viewBox="0 0 14 11"><path d="M1.333 10.667q-.55 0-.941-.392A1.3 1.3 0 0 1 0 9.333v-8q0-.55.392-.941T1.333 0h.884q.549 0 .942.392.391.392.391.941v8q0 .55-.391.942a1.28 1.28 0 0 1-.942.392zm4.9 0q-.55 0-.941-.392a1.3 1.3 0 0 1-.392-.942v-8q0-.55.392-.941T6.233 0h.884q.549 0 .942.392.391.392.391.941v8q0 .55-.391.942a1.28 1.28 0 0 1-.942.392zm4.884 0q-.55 0-.942-.392a1.3 1.3 0 0 1-.392-.942v-8q0-.55.392-.941T11.117 0H12q.55 0 .942.392t.391.941v8q0 .55-.391.942a1.28 1.28 0 0 1-.942.392z"/></svg>