<svg xmlns="http://www.w3.org/2000/svg" fill="#784cdb" viewBox="0 0 17 21"><path d="M16.28 5.27c.14.14.22.33.22.53v14.45c0 .41-.34.75-.75.75h-15a.75.75 0 0 1-.75-.75V.75C0 .34.34 0 .75 0h9.95c.2 0 .4.08.54.22l5.04 5.05Zm-1.51.87-4.41-4.41v4.41h4.41Zm-3.68 7.3a6 6 0 0 0-1.16.07 2.92 2.92 0 0 1-1.23-1.55l.03-.1.03-.12c.1-.43.15-.74.17-1.05.01-.24 0-.45-.05-.65-.07-.44-.38-.7-.77-.71-.36-.02-.7.19-.78.5-.14.5-.06 1.17.24 2.31-.38.9-.87 1.94-1.2 2.52-.45.23-.8.44-1.08.67-.38.3-.62.61-.69.94-.03.15.02.35.13.52.12.18.31.3.53.32.57.04 1.27-.54 2.03-1.86l.26-.09.28-.1.43-.13c.55-.18.97-.3 1.34-.36a4.6 4.6 0 0 0 1.93.58c.42 0 .7-.22.8-.56.1-.3.03-.65-.17-.85-.2-.2-.57-.29-1.07-.3Zm-5.81 3v-.01l.13-.25c.1-.16.24-.32.41-.5l.3-.28.22-.19.26-.24-.2.3a5.46 5.46 0 0 1-.98 1.18.38.38 0 0 1-.06.04h-.05a.05.05 0 0 1-.03-.04Zm2.95-5.11-.05.1-.04-.1a3.86 3.86 0 0 1-.14-.9c-.01-.36.02-.57.13-.57.16 0 .23.25.23.63 0 .34-.04.69-.13.84ZM8.1 12.7l.04-.1.05.1c.27.5.63.9 1.02 1.2l.08.06-.1.02c-.38.08-.74.2-1.23.4l-.64.26-.13.04.07-.11c.29-.5.56-1.11.84-1.87Zm3.7 1.79c-.19.07-.58 0-1.28-.3l-.18-.07.2-.01c.54-.04.93-.01 1.15.07.1.03.16.08.2.13a.1.1 0 0 1-.04.15.16.16 0 0 1-.05.03Z"/></svg>