<svg xmlns="http://www.w3.org/2000/svg" fill="currentColor" viewBox="0 0 24 24"><path d="M13.03 2c1.12 0 1.7 0 2.19.02l.2.01.7.03c1.07.05 1.8.22 2.43.46.66.26 1.22.6 1.77 1.16q.77.76 1.16 1.77c.24.64.41 1.36.46 2.43l.03.71v.2c.02.49.03 1.06.03 2.18v2.05l-.02 2.2v.19l-.04.71a7 7 0 0 1-.46 2.43 5 5 0 0 1-1.16 1.77q-.76.77-1.77 1.16a8 8 0 0 1-2.43.46l-.7.03h-.2c-.5.02-1.07.03-2.2.03h-2.04l-2.2-.02H8.6l-.71-.04a7 7 0 0 1-2.43-.46 5 5 0 0 1-1.77-1.16q-.77-.76-1.16-1.77a7 7 0 0 1-.46-2.43l-.03-.71v-.2L2 13.04v-2.06q0-1.1.02-2.19V8.6l.04-.71a7 7 0 0 1 .46-2.43 5 5 0 0 1 1.16-1.77q.76-.77 1.77-1.16a7 7 0 0 1 2.43-.46l.71-.03h.2L10.96 2zM12 7a5 5 0 1 0 0 10 5 5 0 0 0 0-10m0 2a3 3 0 1 1 0 6 3 3 0 0 1 0-6m5.25-3.5a1.25 1.25 0 1 0 0 2.5 1.25 1.25 0 0 0 0-2.5"/></svg>