<svg xmlns="http://www.w3.org/2000/svg" fill="currentColor" viewBox="0 0 24 24">
  <path d="M12.5 2H6.96428a2.32146 2.32146 0 0 0-2.32143 2.32143V19.6786c0 .6157.24458 1.2061.67993 1.6415A2.3216 2.3216 0 0 0 6.96428 22H18.0357a2.3215 2.3215 0 0 0 1.6415-.6799 2.3213 2.3213 0 0 0 .6799-1.6415V9.85714h-5.5357a2.3215 2.3215 0 0 1-1.6415-.67993 2.3216 2.3216 0 0 1-.6799-1.6415zm7.7593 6.42857a2.322 2.322 0 0 0-.5822-.97571L14.9043 2.68a2.321 2.321 0 0 0-.9757-.58286v5.43857c0 .49286.4.89286.8928.89286z"/>
</svg>
