<svg xmlns="http://www.w3.org/2000/svg" fill="none" viewBox="0 0 48 76"><path fill="url(#a)" d="M31.85 2.08C36.16-.3 40.23-.79 43.3 1.4c2.04 1.45 3.38 3.9 4.08 6.98s.79 6.85.3 11.04c-.96 8.38-4.21 18.55-9.5 28.56S26.55 65.95 20.55 70.76c-3 2.4-5.94 4.03-8.63 4.7-2.7.68-5.18.41-7.22-1.04C1.9 72.45.44 68.64.09 63.85c-.35-4.68.35-10.41 2-16.62a.5.5 0 0 1 .65-.32c.23.1.35.34.29.58-1.66 6.17-2.34 11.8-2 16.33.34 4.65 1.74 8.02 4.13 9.72 1.76 1.25 3.97 1.53 6.5.9 2.54-.64 5.37-2.2 8.31-4.55 5.89-4.72 12.16-12.58 17.4-22.5s8.45-19.97 9.4-28.18c.47-4.1.38-7.73-.29-10.63s-1.88-5.05-3.64-6.3C40.19.4 36.52.7 32.3 3.04c-4.05 2.22-8.5 6.25-12.8 11.66a3.46 3.46 0 1 1-.93-.44q0-.02.03-.05c4.4-5.6 9-9.8 13.25-12.13"/><defs><radialGradient id="a" cx="0" cy="0" r="1" gradientTransform="matrix(29.82 53.13 -33.64 47.1 9.64 12.64)" gradientUnits="userSpaceOnUse"><stop offset=".01" stop-color="#dc46c4"/><stop offset=".6" stop-color="#139eeb"/><stop offset="1" stop-color="#7b5cdd"/></radialGradient></defs></svg>