<svg xmlns="http://www.w3.org/2000/svg" fill="currentColor" viewBox="0 0 24 24"><path fill-rule="evenodd" d="M18.67 2A3.33 3.33 0 0 1 22 5.33v13.34A3.33 3.33 0 0 1 18.67 22H5.33A3.33 3.33 0 0 1 2 18.67V5.33A3.33 3.33 0 0 1 5.33 2zM7.56 9.78a1.1 1.1 0 0 0-1.12 1.1v5.56a1.11 1.11 0 0 0 2.23 0V10.9a1.1 1.1 0 0 0-1.11-1.11m3.33-1.11a1.1 1.1 0 0 0-1.11 1.1v6.67a1.11 1.11 0 0 0 2.22 0v-4.06a5 5 0 0 1 1.55-1.1c.37-.16.92-.23 1.31-.1q.2.05.33.2c.05.08.14.25.14.62v4.44a1.11 1.11 0 0 0 2.23 0V12q0-1.12-.59-1.94a3 3 0 0 0-1.44-1 4.3 4.3 0 0 0-3.55.52 1.1 1.1 0 0 0-1.1-.91M7.56 6.44a1.11 1.11 0 1 0 0 2.23 1.11 1.11 0 0 0 0-2.23" clip-rule="evenodd"/></svg>