<svg xmlns="http://www.w3.org/2000/svg" fill="currentColor" viewBox="0 0 20 20"><path d="M13.3 2.42c1.317-1.323 3.244-1.35 4.31-.28 1.07 1.074 1.041 3.014-.278 4.337l-2.226 2.235a.689.689 0 0 0 .976.972l2.227-2.235c1.755-1.762 1.976-4.576.278-6.281-1.7-1.706-4.508-1.484-6.265.28L7.87 5.917c-1.755 1.763-1.975 4.577-.278 6.28a.688.688 0 1 0 .977-.971c-1.07-1.073-1.04-3.013.278-4.336z"/><path d="M12.158 7.551a.69.69 0 1 0-.976.974c1.069 1.073 1.04 3.012-.279 4.336l-4.452 4.47c-1.318 1.323-3.246 1.35-4.312.28-1.07-1.074-1.04-3.014.278-4.337l2.227-2.235a.69.69 0 0 0-.976-.973L1.44 12.301c-1.756 1.764-1.976 4.577-.279 6.282 1.7 1.707 4.508 1.483 6.265-.28l4.453-4.47c1.755-1.762 1.976-4.578.278-6.282"/></svg>