<svg width="24" height="24" viewBox="0 0 24 24" fill="none" xmlns="http://www.w3.org/2000/svg">
<path d="M21 11.1196V20.24C21 20.4415 20.921 20.6349 20.7803 20.7774C20.6397 20.9199 20.4489 21 20.25 21H15C14.8011 21 14.6103 20.9199 14.4697 20.7774C14.329 20.6349 14.25 20.4415 14.25 20.24V15.2998C14.25 15.199 14.2105 15.1023 14.1402 15.0311C14.0698 14.9598 13.9745 14.9198 13.875 14.9198H10.125C10.0255 14.9198 9.93016 14.9598 9.85983 15.0311C9.78951 15.1023 9.75 15.199 9.75 15.2998V20.24C9.75 20.4415 9.67098 20.6349 9.53033 20.7774C9.38968 20.9199 9.19891 21 9 21H3.75C3.55109 21 3.36032 20.9199 3.21967 20.7774C3.07902 20.6349 3 20.4415 3 20.24V11.1196C3.00018 10.7166 3.15834 10.3301 3.43969 10.0451L10.9397 2.44486C11.221 2.16001 11.6023 2 12 2C12.3977 2 12.779 2.16001 13.0603 2.44486L20.5603 10.0451C20.8417 10.3301 20.9998 10.7166 21 11.1196Z" fill="#656565"/>
</svg>
