<svg xmlns="http://www.w3.org/2000/svg" fill="currentColor" viewBox="0 0 14 14"><path d="M6.729 0a7.6 7.6 0 0 1 1.567.182.54.54 0 0 1 .417.466l.123 1.096a.994.994 0 0 0 1.383.801l1.005-.441a.54.54 0 0 1 .61.125 7 7 0 0 1 1.584 2.722.54.54 0 0 1-.196.592l-.89.658a.99.99 0 0 0 0 1.598l.892.657a.54.54 0 0 1 .195.593 7 7 0 0 1-1.583 2.723.54.54 0 0 1-.609.125l-1.01-.443a.99.99 0 0 0-1.382.8l-.122 1.096a.54.54 0 0 1-.41.464 6.8 6.8 0 0 1-3.164 0 .54.54 0 0 1-.41-.464l-.122-1.095a.992.992 0 0 0-1.382-.796l-1.009.442a.54.54 0 0 1-.61-.126A7 7 0 0 1 .024 9.05a.54.54 0 0 1 .195-.593l.893-.658a.99.99 0 0 0 0-1.598l-.893-.656a.54.54 0 0 1-.195-.593 7 7 0 0 1 1.583-2.723.54.54 0 0 1 .61-.125l1.006.442a.996.996 0 0 0 1.385-.803L4.73.648A.54.54 0 0 1 5.15.18 7.7 7.7 0 0 1 6.729 0M6.72 4.846a2.154 2.154 0 1 0 0 4.308 2.154 2.154 0 0 0 0-4.308"/></svg>