<svg width="24" height="24" viewBox="0 0 24 24" fill="none" xmlns="http://www.w3.org/2000/svg">
<path fill-rule="evenodd" clip-rule="evenodd" d="M18.6667 2C19.5507 2 20.3986 2.35119 21.0237 2.97631C21.6488 3.60143 22 4.44928 22 5.33333V18.6667C22 19.5507 21.6488 20.3986 21.0237 21.0237C20.3986 21.6488 19.5507 22 18.6667 22H5.33333C4.44928 22 3.60143 21.6488 2.97631 21.0237C2.35119 20.3986 2 19.5507 2 18.6667V5.33333C2 4.44928 2.35119 3.60143 2.97631 2.97631C3.60143 2.35119 4.44928 2 5.33333 2H18.6667ZM7.55556 9.77778C7.26087 9.77778 6.97826 9.89484 6.76988 10.1032C6.56151 10.3116 6.44444 10.5942 6.44444 10.8889V16.4444C6.44444 16.7391 6.56151 17.0217 6.76988 17.2301C6.97826 17.4385 7.26087 17.5556 7.55556 17.5556C7.85024 17.5556 8.13286 17.4385 8.34123 17.2301C8.5496 17.0217 8.66667 16.7391 8.66667 16.4444V10.8889C8.66667 10.5942 8.5496 10.3116 8.34123 10.1032C8.13286 9.89484 7.85024 9.77778 7.55556 9.77778ZM10.8889 8.66667C10.5942 8.66667 10.3116 8.78373 10.1032 8.9921C9.89484 9.20048 9.77778 9.48309 9.77778 9.77778V16.4444C9.77778 16.7391 9.89484 17.0217 10.1032 17.2301C10.3116 17.4385 10.5942 17.5556 10.8889 17.5556C11.1836 17.5556 11.4662 17.4385 11.6746 17.2301C11.8829 17.0217 12 16.7391 12 16.4444V12.3778C12.3389 11.9956 12.9111 11.5467 13.5478 11.2744C13.9178 11.1167 14.4744 11.0522 14.8611 11.1744C14.9894 11.207 15.1036 11.2803 15.1867 11.3833C15.2444 11.4611 15.3333 11.6344 15.3333 12V16.4444C15.3333 16.7391 15.4504 17.0217 15.6588 17.2301C15.8671 17.4385 16.1498 17.5556 16.4444 17.5556C16.7391 17.5556 17.0217 17.4385 17.2301 17.2301C17.4385 17.0217 17.5556 16.7391 17.5556 16.4444V12C17.5556 11.2556 17.3667 10.5933 16.9733 10.0622C16.6114 9.58062 16.1048 9.22747 15.5278 9.05444C14.5256 8.74 13.4156 8.91444 12.6744 9.23222C12.4372 9.33427 12.2061 9.45002 11.9822 9.57889C11.9356 9.32288 11.8007 9.09133 11.6009 8.92463C11.4011 8.75792 11.1491 8.66663 10.8889 8.66667ZM7.55556 6.44444C7.26087 6.44444 6.97826 6.56151 6.76988 6.76988C6.56151 6.97826 6.44444 7.26087 6.44444 7.55556C6.44444 7.85024 6.56151 8.13286 6.76988 8.34123C6.97826 8.5496 7.26087 8.66667 7.55556 8.66667C7.85024 8.66667 8.13286 8.5496 8.34123 8.34123C8.5496 8.13286 8.66667 7.85024 8.66667 7.55556C8.66667 7.26087 8.5496 6.97826 8.34123 6.76988C8.13286 6.56151 7.85024 6.44444 7.55556 6.44444Z" fill="#784CDB"/>
</svg>
