<svg width="16" height="16" viewBox="0 0 16 16" fill="none" xmlns="http://www.w3.org/2000/svg">
<path d="M2.07407 4.44444C2.07407 4.32657 2.12089 4.21352 2.20424 4.13017C2.28759 4.04683 2.40064 4 2.51851 4H11.7037C11.8216 4 11.9346 4.04683 12.018 4.13017C12.1013 4.21352 12.1481 4.32657 12.1481 4.44444C12.1481 4.56232 12.1013 4.67536 12.018 4.75871C11.9346 4.84206 11.8216 4.88889 11.7037 4.88889H2.51851C2.40064 4.88889 2.28759 4.84206 2.20424 4.75871C2.12089 4.67536 2.07407 4.56232 2.07407 4.44444ZM2.07407 11.5556C2.07407 11.4377 2.12089 11.3246 2.20424 11.2413C2.28759 11.1579 2.40064 11.1111 2.51851 11.1111H9.92592C10.0438 11.1111 10.1568 11.1579 10.2402 11.2413C10.3235 11.3246 10.3704 11.4377 10.3704 11.5556C10.3704 11.6734 10.3235 11.7865 10.2402 11.8698C10.1568 11.9532 10.0438 12 9.92592 12H2.51851C2.40064 12 2.28759 11.9532 2.20424 11.8698C2.12089 11.7865 2.07407 11.6734 2.07407 11.5556ZM2.51851 7.55556C2.40064 7.55556 2.28759 7.60238 2.20424 7.68573C2.12089 7.76908 2.07407 7.88213 2.07407 8C2.07407 8.11787 2.12089 8.23092 2.20424 8.31427C2.28759 8.39762 2.40064 8.44444 2.51851 8.44444H13.4815C13.5993 8.44444 13.7124 8.39762 13.7957 8.31427C13.8791 8.23092 13.9259 8.11787 13.9259 8C13.9259 7.88213 13.8791 7.76908 13.7957 7.68573C13.7124 7.60238 13.5993 7.55556 13.4815 7.55556H2.51851Z" fill="black"/>
</svg>
