<svg width="24" height="24" viewBox="0 0 24 24" fill="none" xmlns="http://www.w3.org/2000/svg">
<path d="M14 12C14 12.5304 13.7893 13.0391 13.4142 13.4142C13.0391 13.7893 12.5304 14 12 14C11.4696 14 10.9609 13.7893 10.5858 13.4142C10.2107 13.0391 10 12.5304 10 12C10 11.4696 10.2107 10.9609 10.5858 10.5858C10.9609 10.2107 11.4696 10 12 10C12.5304 10 13.0391 10.2107 13.4142 10.5858C13.7893 10.9609 14 11.4696 14 12Z" fill="#784CDB"/>
<path fill-rule="evenodd" clip-rule="evenodd" d="M12 3C6.40799 3 1.70999 6.824 0.377991 12C1.70999 17.176 6.40799 21 12 21C17.592 21 22.29 17.176 23.622 12C22.29 6.824 17.592 3 12 3ZM16 12C16 13.0609 15.5786 14.0783 14.8284 14.8284C14.0783 15.5786 13.0609 16 12 16C10.9391 16 9.92171 15.5786 9.17156 14.8284C8.42142 14.0783 7.99999 13.0609 7.99999 12C7.99999 10.9391 8.42142 9.92172 9.17156 9.17157C9.92171 8.42143 10.9391 8 12 8C13.0609 8 14.0783 8.42143 14.8284 9.17157C15.5786 9.92172 16 10.9391 16 12Z" fill="#784CDB"/>
</svg>
