<svg width="96" height="96" viewBox="0 0 96 96" fill="none" xmlns="http://www.w3.org/2000/svg">
<path fill-rule="evenodd" clip-rule="evenodd" d="M48 0C74.5097 0 96 21.4903 96 48C96 74.5097 74.5097 96 48 96C21.4903 96 0 74.5097 0 48C0 21.4903 21.4903 0 48 0ZM48.0035 11.6367C47.9915 11.7499 45.8403 31.9803 38.3063 39.5145C30.7661 47.0546 11.7163 47.9963 11.6402 48C11.7218 48.0135 31.9791 51.369 39.5191 58.909C47.0581 66.4483 47.9995 84.2874 48.0035 84.3633C48.0074 84.2893 48.9495 66.4486 56.4891 58.909C64.0234 51.3751 84.2535 48.0188 84.3668 48C84.2549 47.9948 64.0234 47.0488 56.4891 39.5145C48.9547 31.98 48.0087 11.7482 48.0035 11.6367Z" fill="url(#paint0_radial_1052_90839)"/>
<defs>
<radialGradient id="paint0_radial_1052_90839" cx="0" cy="0" r="1" gradientUnits="userSpaceOnUse" gradientTransform="translate(19.2727 16) rotate(48.4434) scale(89.9006)">
<stop offset="0.0138435" stop-color="#DC46C4"/>
<stop offset="0.603536" stop-color="#139EEB"/>
<stop offset="1" stop-color="#7B5CDD"/>
</radialGradient>
</defs>
</svg>
