<svg width="80" height="68" viewBox="0 0 80 68" fill="none" xmlns="http://www.w3.org/2000/svg">
<path d="M24.3877 18.0342C24.5267 19.0971 24.7106 20.3073 24.959 21.5791C25.3588 23.6261 25.9213 25.8458 26.71 27.8818C27.4965 29.9122 28.5211 31.7946 29.8633 33.1367C31.2054 34.4789 33.0878 35.5035 35.1182 36.29C37.1542 37.0787 39.3739 37.6412 41.4209 38.041C42.9384 38.3374 44.3673 38.5458 45.5645 38.6904C44.3584 38.9678 42.9121 39.3323 41.375 39.7871C39.3312 40.3919 37.1177 41.1593 35.0889 42.1006C33.0656 43.0393 31.1953 44.1642 29.8633 45.4961C27.2089 48.1505 25.7565 52.5642 24.9609 56.2275C24.7743 57.0872 24.623 57.9119 24.5 58.6709C24.377 57.9119 24.2257 57.0872 24.0391 56.2275C23.2435 52.5642 21.7911 48.1505 19.1367 45.4961C17.8047 44.1642 15.9344 43.0393 13.9111 42.1006C11.8823 41.1593 9.66878 40.3919 7.625 39.7871C6.05544 39.3227 4.58047 38.9533 3.35938 38.6738C4.46829 38.5298 5.78 38.3269 7.1748 38.04C11.0363 37.2459 15.6615 35.7955 18.3203 33.1367C19.6573 31.7997 20.732 29.9233 21.5947 27.8965C22.4599 25.864 23.1255 23.6471 23.6279 21.6016C23.9425 20.3207 24.1904 19.1025 24.3877 18.0342Z" fill="url(#paint0_radial_2348_2401)" stroke="url(#paint1_radial_2348_2401)"/>
<path d="M60.3936 3.85156C60.4922 4.5363 60.6139 5.27968 60.7646 6.05176C61.0835 7.68449 61.5335 9.45696 62.1641 11.085C62.7925 12.7074 63.6138 14.2212 64.6963 15.3037C65.7788 16.3862 67.2926 17.2075 68.915 17.8359C70.543 18.4665 72.3155 18.9165 73.9482 19.2354C74.9347 19.428 75.8745 19.5708 76.7051 19.6807C75.8635 19.8825 74.9071 20.1285 73.9023 20.4258C72.2726 20.908 70.5057 21.5214 68.8848 22.2734C67.2695 23.0228 65.7686 23.9239 64.6963 24.9961C62.5613 27.1311 61.4003 30.6697 60.7666 33.5879C60.6639 34.061 60.5778 34.5215 60.5 34.96C60.4222 34.5215 60.3361 34.061 60.2334 33.5879C59.5997 30.6697 58.4387 27.1311 56.3037 24.9961C55.2314 23.9239 53.7305 23.0228 52.1152 22.2734C50.4943 21.5214 48.7274 20.908 47.0977 20.4258C46.0659 20.1205 45.0853 19.8687 44.2275 19.6641C44.9862 19.556 45.8376 19.4182 46.7314 19.2344C49.806 18.6021 53.5139 17.443 55.6533 15.3037C56.7307 14.2264 57.5932 12.7194 58.2822 11.1006C58.9736 9.47621 59.5046 7.70639 59.9053 6.0752C60.097 5.29441 60.2574 4.54264 60.3936 3.85156Z" fill="url(#paint2_radial_2348_2401)" stroke="url(#paint3_radial_2348_2401)"/>
<path d="M52.9736 46.9102C53.1709 47.9623 53.4492 49.1093 53.8418 50.165C54.2321 51.2146 54.7486 52.2101 55.4395 52.9297C56.1315 53.6505 57.0908 54.1904 58.1025 54.5986C59.1194 55.0089 60.2233 55.2999 61.2354 55.5059C61.5262 55.565 61.8106 55.6159 62.084 55.6621C61.796 55.7417 61.4953 55.828 61.1875 55.9229C59.1986 56.5359 56.784 57.503 55.4395 58.9033C54.1137 60.2843 53.3956 62.5349 53 64.3877C52.6044 62.5349 51.8863 60.2843 50.5605 58.9033C49.216 57.503 46.8014 56.5359 44.8125 55.9229C44.4824 55.8211 44.1604 55.7297 43.8535 55.6455C44.0851 55.6033 44.3247 55.5573 44.5693 55.5049C46.466 55.0986 48.8015 54.346 50.1611 52.9297C50.8469 52.2153 51.387 51.2258 51.8145 50.1797C52.2445 49.1274 52.5735 47.9834 52.8213 46.9326C52.8526 46.7999 52.8804 46.6678 52.9092 46.5381C52.9304 46.6605 52.9502 46.7851 52.9736 46.9102Z" fill="url(#paint4_radial_2348_2401)" stroke="url(#paint5_radial_2348_2401)"/>
<defs>
<radialGradient id="paint0_radial_2348_2401" cx="0" cy="0" r="1" gradientUnits="userSpaceOnUse" gradientTransform="translate(9.83712 22.1667) rotate(48.4434) scale(45.8868)">
<stop offset="0.0138435" stop-color="#DC46C4"/>
<stop offset="0.603536" stop-color="#139EEB"/>
<stop offset="1" stop-color="#7B5CDD"/>
</radialGradient>
<radialGradient id="paint1_radial_2348_2401" cx="0" cy="0" r="1" gradientUnits="userSpaceOnUse" gradientTransform="translate(9.83712 22.1667) rotate(48.4434) scale(45.8868)">
<stop offset="0.0138435" stop-color="#DC46C4"/>
<stop offset="0.603536" stop-color="#139EEB"/>
<stop offset="1" stop-color="#7B5CDD"/>
</radialGradient>
<radialGradient id="paint2_radial_2348_2401" cx="0" cy="0" r="1" gradientUnits="userSpaceOnUse" gradientTransform="translate(48.8295 6.5) rotate(48.4434) scale(36.5221)">
<stop offset="0.0138435" stop-color="#DC46C4"/>
<stop offset="0.603536" stop-color="#139EEB"/>
<stop offset="1" stop-color="#7B5CDD"/>
</radialGradient>
<radialGradient id="paint3_radial_2348_2401" cx="0" cy="0" r="1" gradientUnits="userSpaceOnUse" gradientTransform="translate(48.8295 6.5) rotate(48.4434) scale(36.5221)">
<stop offset="0.0138435" stop-color="#DC46C4"/>
<stop offset="0.603536" stop-color="#139EEB"/>
<stop offset="1" stop-color="#7B5CDD"/>
</radialGradient>
<radialGradient id="paint4_radial_2348_2401" cx="0" cy="0" r="1" gradientTransform="matrix(14.9091 17.5189 -16.8182 15.5303 45.8182 47.1667)" gradientUnits="userSpaceOnUse">
<stop offset="0.0138435" stop-color="#DC46C4"/>
<stop offset="0.603536" stop-color="#139EEB"/>
<stop offset="1" stop-color="#7B5CDD"/>
</radialGradient>
<radialGradient id="paint5_radial_2348_2401" cx="0" cy="0" r="1" gradientTransform="matrix(14.9091 17.5189 -16.8182 15.5303 45.8182 47.1667)" gradientUnits="userSpaceOnUse">
<stop offset="0.0138435" stop-color="#DC46C4"/>
<stop offset="0.603536" stop-color="#139EEB"/>
<stop offset="1" stop-color="#7B5CDD"/>
</radialGradient>
</defs>
</svg>
