<svg xmlns="http://www.w3.org/2000/svg" fill="none" viewBox="0 0 80 68"><path fill="url(#a)" stroke="url(#b)" d="M24.388 18.034a58 58 0 0 0 .571 3.545c.4 2.047.962 4.267 1.751 6.303.787 2.03 1.811 3.913 3.153 5.255s3.225 2.367 5.255 3.153c2.036.789 4.256 1.351 6.303 1.751a58 58 0 0 0 4.144.65 71 71 0 0 0-4.19 1.096c-2.044.605-4.257 1.372-6.286 2.314-2.023.938-3.894 2.063-5.226 3.395-2.654 2.654-4.107 7.068-4.902 10.731-.187.86-.338 1.685-.461 2.444a47 47 0 0 0-.46-2.443c-.796-3.664-2.249-8.078-4.903-10.732-1.332-1.332-3.203-2.457-5.226-3.395-2.029-.942-4.242-1.71-6.286-2.314a71 71 0 0 0-4.266-1.113 53 53 0 0 0 3.816-.634c3.861-.794 8.487-2.245 11.145-4.903 1.337-1.337 2.412-3.214 3.275-5.24.865-2.033 1.53-4.25 2.033-6.295.314-1.281.562-2.5.76-3.568Z"/><path fill="url(#c)" stroke="url(#d)" d="M60.394 3.852c.098.684.22 1.428.37 2.2.32 1.632.77 3.405 1.4 5.033.628 1.622 1.45 3.136 2.532 4.219 1.083 1.082 2.597 1.903 4.219 2.532 1.628.63 3.4 1.08 5.033 1.4a46 46 0 0 0 2.757.445c-.841.201-1.798.447-2.803.745-1.63.482-3.396 1.095-5.017 1.847-1.616.75-3.116 1.65-4.189 2.723-2.135 2.135-3.296 5.674-3.93 8.592a39 39 0 0 0-.266 1.372 37 37 0 0 0-.267-1.372c-.633-2.918-1.794-6.457-3.93-8.592-1.072-1.072-2.572-1.973-4.188-2.723-1.62-.752-3.388-1.365-5.017-1.847a56 56 0 0 0-2.87-.762c.758-.108 1.61-.246 2.503-.43 3.075-.632 6.783-1.791 8.922-3.93 1.078-1.078 1.94-2.585 2.63-4.203.69-1.625 1.222-3.395 1.622-5.026.192-.78.352-1.532.489-2.223Z"/><path fill="url(#e)" stroke="url(#f)" d="M52.974 46.91c.197 1.052.475 2.2.868 3.255.39 1.05.907 2.045 1.598 2.765s1.65 1.26 2.663 1.669c1.016.41 2.12.7 3.132.907q.438.088.849.156-.433.12-.897.26c-1.988.614-4.403 1.581-5.747 2.981-1.326 1.381-2.044 3.632-2.44 5.485-.396-1.853-1.114-4.104-2.44-5.485-1.344-1.4-3.759-2.367-5.748-2.98q-.497-.152-.959-.278.349-.062.716-.14c1.897-.406 4.232-1.159 5.592-2.575.686-.715 1.226-1.704 1.654-2.75.43-1.053.759-2.197 1.006-3.247q.047-.2.088-.395.03.184.065.372Z"/><defs><radialGradient id="a" cx="0" cy="0" r="1" gradientTransform="rotate(48.443 -19.718 22.017)scale(45.8868)" gradientUnits="userSpaceOnUse"><stop offset=".014" stop-color="#dc46c4"/><stop offset=".604" stop-color="#139eeb"/><stop offset="1" stop-color="#7b5cdd"/></radialGradient><radialGradient id="b" cx="0" cy="0" r="1" gradientTransform="rotate(48.443 -19.718 22.017)scale(45.8868)" gradientUnits="userSpaceOnUse"><stop offset=".014" stop-color="#dc46c4"/><stop offset=".604" stop-color="#139eeb"/><stop offset="1" stop-color="#7b5cdd"/></radialGradient><radialGradient id="c" cx="0" cy="0" r="1" gradientTransform="rotate(48.443 17.19 57.52)scale(36.5221)" gradientUnits="userSpaceOnUse"><stop offset=".014" stop-color="#dc46c4"/><stop offset=".604" stop-color="#139eeb"/><stop offset="1" stop-color="#7b5cdd"/></radialGradient><radialGradient id="d" cx="0" cy="0" r="1" gradientTransform="rotate(48.443 17.19 57.52)scale(36.5221)" gradientUnits="userSpaceOnUse"><stop offset=".014" stop-color="#dc46c4"/><stop offset=".604" stop-color="#139eeb"/><stop offset="1" stop-color="#7b5cdd"/></radialGradient><radialGradient id="e" cx="0" cy="0" r="1" gradientTransform="matrix(14.9091 17.5189 -16.8182 15.5303 45.818 47.167)" gradientUnits="userSpaceOnUse"><stop offset=".014" stop-color="#dc46c4"/><stop offset=".604" stop-color="#139eeb"/><stop offset="1" stop-color="#7b5cdd"/></radialGradient><radialGradient id="f" cx="0" cy="0" r="1" gradientTransform="matrix(14.9091 17.5189 -16.8182 15.5303 45.818 47.167)" gradientUnits="userSpaceOnUse"><stop offset=".014" stop-color="#dc46c4"/><stop offset=".604" stop-color="#139eeb"/><stop offset="1" stop-color="#7b5cdd"/></radialGradient></defs></svg>