<svg xmlns="http://www.w3.org/2000/svg" style="display:none;">

    <symbol id="icon-arrow-black" viewBox="0 0 24 24">
    <path d="M7 10L12 15L17 10" stroke="black" stroke-linecap="round"/>
  </symbol>

    <symbol id="icon-arrow" viewBox="0 0 24 24">
    <path d="M7 10L12 15L17 10" stroke="currentColor" stroke-linecap="round"/>
  </symbol>

  <symbol id="icon-search" width="24" height="24" viewBox="0 0 24 24" fill="none" xmlns="http://www.w3.org/2000/svg">
        <path d="M16.893 16.92L19.973 20M19 11.5C19 13.4891 18.2098 15.3968 16.8033 16.8033C15.3968 18.2098 13.4891 19 11.5 19C9.51088 19 7.60322 18.2098 6.1967 16.8033C4.79018 15.3968 4 13.4891 4 11.5C4 9.51088 4.79018 7.60322 6.1967 6.1967C7.60322 4.79018 9.51088 4 11.5 4C13.4891 4 15.3968 4.79018 16.8033 6.1967C18.2098 7.60322 19 9.51088 19 11.5Z" stroke="white" stroke-linecap="round" stroke-linejoin="round"/>
    </symbol>

    <symbol id="icon-close" viewBox="0 0 24 24">
    <path d="M6 6L18 18M6 18L18 6" stroke="white" stroke-linecap="round"/>
  </symbol>

    <symbol id="icon-burger" viewBox="0 0 16 16">
    <path d="M2.07422 4.44444C2.07422 4.32657 2.12104 4.21352 2.20439 4.13017C2.28774 4.04683 2.40079 4 2.51866 4H11.7038C11.8217 4 11.9348 4.04683 12.0181 4.13017C12.1015 4.21352 12.1483 4.32657 12.1483 4.44444C12.1483 4.56232 12.1015 4.67536 12.0181 4.75871C11.9348 4.84206 11.8217 4.88889 11.7038 4.88889H2.51866C2.40079 4.88889 2.28774 4.84206 2.20439 4.75871C2.12104 4.67536 2.07422 4.56232 2.07422 4.44444ZM2.07422 11.5556C2.07422 11.4377 2.12104 11.3246 2.20439 11.2413C2.28774 11.1579 2.40079 11.1111 2.51866 11.1111H9.92607C10.0439 11.1111 10.157 11.1579 10.2403 11.2413C10.3237 11.3246 10.3705 11.4377 10.3705 11.5556C10.3705 11.6734 10.3237 11.7865 10.2403 11.8698C10.157 11.9532 10.0439 12 9.92607 12H2.51866C2.40079 12 2.28774 11.9532 2.20439 11.8698C2.12104 11.7865 2.07422 11.6734 2.07422 11.5556ZM2.51866 7.55556C2.40079 7.55556 2.28774 7.60238 2.20439 7.68573C2.12104 7.76908 2.07422 7.88213 2.07422 8C2.07422 8.11787 2.12104 8.23092 2.20439 8.31427C2.28774 8.39762 2.40079 8.44444 2.51866 8.44444H13.4816C13.5995 8.44444 13.7125 8.39762 13.7959 8.31427C13.8792 8.23092 13.9261 8.11787 13.9261 8C13.9261 7.88213 13.8792 7.76908 13.7959 7.68573C13.7125 7.60238 13.5995 7.55556 13.4816 7.55556H2.51866Z" fill="white"/>
  </symbol>

</svg>