<svg aria-hidden="true" style="position: absolute; width: 0; height: 0; overflow: hidden;" version="1.1" xmlns="http://www.w3.org/2000/svg" xmlns:xlink="http://www.w3.org/1999/xlink">
<defs>
<symbol id="icon-arrow_right" viewBox="0 0 32 32">
<path stroke-linejoin="miter" stroke-linecap="round" stroke-miterlimit="4" stroke-width="0.7273" d="M12.727 8.727l6.545 7.273-6.545 7.273"></path>
</symbol>
<symbol id="icon-arrow_left" viewBox="0 0 32 32">
<path stroke-linejoin="miter" stroke-linecap="round" stroke-miterlimit="4" stroke-width="0.7273" d="M19.273 8.727l-6.545 7.273 6.545 7.273"></path>
</symbol>
<symbol id="icon-park_done-all" viewBox="0 0 32 32">
<path stroke-linejoin="round" stroke-linecap="round" stroke-miterlimit="4" stroke-width="2.6667" d="M9.333 16l0.833 0.833M29.333 9.333l-13.333 13.333-0.833-0.833"></path>
<path stroke-linejoin="round" stroke-linecap="round" stroke-miterlimit="4" stroke-width="2.6667" d="M2.667 16l6.667 6.667 13.333-13.333"></path>
</symbol>
<symbol id="icon-good" viewBox="0 0 32 32">
<path fill="#41c648" style="fill: var(--color1, #41c648)" d="M16 29.333c-7.364 0-13.333-5.969-13.333-13.333s5.969-13.333 13.333-13.333c7.364 0 13.333 5.969 13.333 13.333s-5.969 13.333-13.333 13.333zM14.431 18.853l-3.687-3.689-1.411 1.411 4.159 4.161c0.25 0.25 0.589 0.39 0.943 0.39s0.693-0.14 0.943-0.39l7.936-7.933-1.416-1.416-7.467 7.467z"></path>
</symbol>
<symbol id="icon-filter" viewBox="0 0 32 32">
<path stroke-linejoin="miter" stroke-linecap="round" stroke-miterlimit="10" stroke-width="2" d="M29.495 20.82h-18.025M11.47 20.82c0 0.843-0.337 1.652-0.933 2.249s-1.405 0.932-2.249 0.932-1.652-0.335-2.249-0.932c-0.596-0.596-0.932-1.405-0.932-2.249M11.47 20.82c0-0.844-0.337-1.653-0.933-2.249s-1.405-0.932-2.249-0.932c-0.844 0-1.652 0.335-2.249 0.932s-0.932 1.405-0.932 2.249M5.108 20.82h-2.603M29.495 11.18h-4.53M24.965 11.18c0 0.418-0.084 0.831-0.244 1.217s-0.394 0.736-0.689 1.032c-0.295 0.295-0.646 0.53-1.032 0.689s-0.799 0.242-1.217 0.242c-0.844 0-1.653-0.335-2.249-0.932s-0.932-1.405-0.932-2.249M24.965 11.18c0-0.418-0.084-0.831-0.244-1.217s-0.394-0.736-0.689-1.032c-0.295-0.295-0.646-0.53-1.032-0.689s-0.799-0.242-1.217-0.242c-0.844 0-1.653 0.335-2.249 0.932s-0.932 1.405-0.932 2.249M18.603 11.18h-16.098"></path>
</symbol>
<symbol id="icon-list" viewBox="0 0 32 32">
<path d="M4.148 8.889c0-0.236 0.094-0.462 0.26-0.629s0.393-0.26 0.629-0.26h18.37c0.236 0 0.462 0.094 0.629 0.26s0.26 0.393 0.26 0.629-0.094 0.462-0.26 0.629c-0.167 0.167-0.393 0.26-0.629 0.26h-18.37c-0.236 0-0.462-0.094-0.629-0.26s-0.26-0.393-0.26-0.629zM4.148 23.111c0-0.236 0.094-0.462 0.26-0.629s0.393-0.26 0.629-0.26h14.815c0.236 0 0.462 0.094 0.629 0.26s0.26 0.393 0.26 0.629c0 0.236-0.094 0.462-0.26 0.628s-0.393 0.26-0.629 0.26h-14.815c-0.236 0-0.462-0.094-0.629-0.26s-0.26-0.393-0.26-0.628zM5.037 15.111c-0.236 0-0.462 0.094-0.629 0.26s-0.26 0.393-0.26 0.629c0 0.236 0.094 0.462 0.26 0.629s0.393 0.26 0.629 0.26h21.926c0.236 0 0.462-0.094 0.628-0.26s0.26-0.393 0.26-0.629-0.094-0.462-0.26-0.629c-0.167-0.167-0.393-0.26-0.628-0.26h-21.926z"></path>
</symbol>
<symbol id="icon-grid" viewBox="0 0 32 32">
<path d="M12 17.333c0.707 0 1.386 0.281 1.886 0.781s0.781 1.178 0.781 1.886v5.333c0 0.707-0.281 1.385-0.781 1.886s-1.178 0.781-1.886 0.781h-5.333c-0.707 0-1.386-0.281-1.886-0.781s-0.781-1.178-0.781-1.886v-5.333c0-0.707 0.281-1.386 0.781-1.886s1.178-0.781 1.886-0.781h5.333zM25.333 17.333c0.707 0 1.385 0.281 1.886 0.781s0.781 1.178 0.781 1.886v5.333c0 0.707-0.281 1.385-0.781 1.886s-1.178 0.781-1.886 0.781h-5.333c-0.707 0-1.386-0.281-1.886-0.781s-0.781-1.178-0.781-1.886v-5.333c0-0.707 0.281-1.386 0.781-1.886s1.178-0.781 1.886-0.781h5.333zM12 4c0.707 0 1.386 0.281 1.886 0.781s0.781 1.178 0.781 1.886v5.333c0 0.707-0.281 1.386-0.781 1.886s-1.178 0.781-1.886 0.781h-5.333c-0.707 0-1.386-0.281-1.886-0.781s-0.781-1.178-0.781-1.886v-5.333c0-0.707 0.281-1.386 0.781-1.886s1.178-0.781 1.886-0.781h5.333zM25.333 4c0.707 0 1.385 0.281 1.886 0.781s0.781 1.178 0.781 1.886v5.333c0 0.707-0.281 1.386-0.781 1.886s-1.178 0.781-1.886 0.781h-5.333c-0.707 0-1.386-0.281-1.886-0.781s-0.781-1.178-0.781-1.886v-5.333c0-0.707 0.281-1.386 0.781-1.886s1.178-0.781 1.886-0.781h5.333z"></path>
</symbol>
<symbol id="icon-lightning" viewBox="0 0 32 32">
<path fill="#fac625" style="fill: var(--color2, #fac625)" d="M20.567 3c1.121 0 1.872 1.064 1.616 2.084l-0.065 0.204-2.797 7.179h3.347c1.313 0 2.043 1.405 1.467 2.472l-0.133 0.208-9.96 13.396c-0.72 0.967-2.161 0.299-2.036-0.807l1.047-9.213h-3.717c-1.209 0-1.983-1.232-1.54-2.313l0.007-0.015 5.208-12.171c0.127-0.303 0.34-0.562 0.613-0.744s0.594-0.28 0.922-0.28h6.024z"></path>
</symbol>
<symbol id="icon-arrow" viewBox="0 0 32 32">
<path fill="none" stroke="#784cdb" style="stroke: var(--color3, #784cdb)" stroke-linejoin="round" stroke-linecap="round" stroke-miterlimit="4" stroke-width="1.7778" d="M11.556 7.111l8.889 8.889-8.889 8.889"></path>
</symbol>
<symbol id="icon-plus_small16" viewBox="0 0 32 32">
<path stroke-linejoin="round" stroke-linecap="round" stroke-miterlimit="4" stroke-width="2" d="M28 16h-12M16 16h-12M16 16v-12M16 16v12"></path>
</symbol>
<symbol id="icon-long_arrow_left" viewBox="0 0 32 32">
<path stroke-linejoin="round" stroke-linecap="round" stroke-miterlimit="4" stroke-width="2" d="M10 8l-8 8M2 16l8 8M2 16h26"></path>
</symbol>
<symbol id="icon-plus" viewBox="0 0 32 32">
<path stroke-linejoin="miter" stroke-linecap="round" stroke-miterlimit="4" stroke-width="1.3333" d="M5.333 16h22.627M16.647 27.314v-22.627"></path>
</symbol>
<symbol id="icon-close" viewBox="0 0 32 32">
<path stroke-linejoin="miter" stroke-linecap="round" stroke-miterlimit="4" stroke-width="1.3333" d="M8 8l16 16M8 24l16-16"></path>
</symbol>
<symbol id="icon-closed" viewBox="0 0 32 32">
<path fill="none" stroke="#784cdb" style="stroke: var(--color3, #784cdb)" stroke-linejoin="round" stroke-linecap="round" stroke-miterlimit="4" stroke-width="2.6667" d="M4 4l24 24"></path>
<path fill="#784cdb" style="fill: var(--color3, #784cdb)" d="M7.2 8.307c-0.587 0.44-1.124 0.904-1.613 1.376-1.634 1.587-2.987 3.44-4.001 5.48-0.126 0.261-0.192 0.547-0.192 0.837s0.066 0.576 0.192 0.837c1.014 2.040 2.366 3.894 4 5.481 2.335 2.247 5.772 4.349 10.415 4.349 2.981 0 5.467-0.867 7.48-2.083l-5.259-5.257c-0.769 0.514-1.693 0.745-2.614 0.655s-1.782-0.498-2.436-1.152c-0.654-0.654-1.062-1.515-1.152-2.436s0.141-1.845 0.655-2.614l-5.473-5.472zM27.555 21.117c1.134-1.297 2.095-2.736 2.86-4.28 0.126-0.261 0.192-0.547 0.192-0.837s-0.066-0.576-0.192-0.837c-1.014-2.040-2.366-3.894-4-5.481-2.335-2.247-5.771-4.349-10.415-4.349-1.264-0.004-2.523 0.159-3.744 0.484l15.299 15.3z"></path>
</symbol>
<symbol id="icon-opened" viewBox="0 0 32 32">
<path fill="#784cdb" style="fill: var(--color3, #784cdb)" d="M18.667 16c0 0.707-0.281 1.385-0.781 1.886s-1.178 0.781-1.886 0.781c-0.707 0-1.385-0.281-1.886-0.781s-0.781-1.178-0.781-1.886c0-0.707 0.281-1.385 0.781-1.886s1.178-0.781 1.886-0.781c0.707 0 1.385 0.281 1.886 0.781s0.781 1.178 0.781 1.886z"></path>
<path fill="#784cdb" style="fill: var(--color3, #784cdb)" d="M16 4c-7.456 0-13.72 5.099-15.496 12 1.776 6.901 8.040 12 15.496 12s13.72-5.099 15.496-12c-1.776-6.901-8.040-12-15.496-12zM21.333 16c0 1.415-0.562 2.771-1.562 3.771s-2.357 1.562-3.771 1.562-2.771-0.562-3.771-1.562c-1-1-1.562-2.357-1.562-3.771s0.562-2.771 1.562-3.771c1-1 2.357-1.562 3.771-1.562s2.771 0.562 3.771 1.562c1 1 1.562 2.357 1.562 3.771z"></path>
</symbol>
<symbol id="icon-archiwum" viewBox="0 0 32 32">
<path fill="#784cdb" style="fill: var(--color3, #784cdb)" d="M6.667 4.333c-0.972 0-1.905 0.386-2.593 1.074s-1.074 1.62-1.074 2.593v16c0 0.972 0.386 1.905 1.074 2.593s1.62 1.074 2.593 1.074h18.667c0.972 0 1.905-0.386 2.593-1.074s1.074-1.62 1.074-2.593v-12c0-0.972-0.386-1.905-1.074-2.593s-1.62-1.074-2.593-1.074h-9.787c-0.405-0-0.797-0.148-1.101-0.416l-3.029-2.669c-0.669-0.589-1.531-0.915-2.423-0.915h-2.327z"></path>
</symbol>
<symbol id="icon-write" viewBox="0 0 32 32">
<path fill="#784cdb" style="fill: var(--color3, #784cdb)" d="M31.747-0.926l1.179 1.179c1.625 1.626 1.379 4.509-0.553 6.439l-24.313 24.306-7.877 2.881c-0.989 0.364-1.952-0.108-2.148-1.049-0.066-0.341-0.035-0.694 0.090-1.019l2.938-7.943 24.245-24.24c1.932-1.93 4.816-2.179 6.44-0.553z"></path>
</symbol>
<symbol id="icon-pdf" viewBox="0 0 32 32">
<path fill="#784cdb" style="fill: var(--color3, #784cdb)" d="M26.706 9.022c0.187 0.188 0.294 0.441 0.294 0.706v19.272c0 0.553-0.447 1-1 1h-20c-0.553 0-1-0.447-1-1v-26c0-0.553 0.447-1 1-1h13.272c0.266 0 0.522 0.106 0.709 0.294l6.725 6.728zM24.694 10.188l-5.881-5.881v5.881h5.881zM19.788 19.914c-0.474-0.016-0.979 0.021-1.552 0.093-0.759-0.469-1.271-1.112-1.634-2.057l0.033-0.137 0.039-0.162c0.134-0.567 0.207-0.98 0.228-1.397 0.016-0.315-0.001-0.605-0.057-0.874-0.103-0.581-0.514-0.921-1.032-0.942-0.483-0.020-0.927 0.25-1.040 0.668-0.185 0.676-0.077 1.565 0.315 3.081-0.499 1.189-1.158 2.583-1.6 3.361-0.59 0.304-1.050 0.581-1.436 0.888-0.509 0.405-0.828 0.822-0.915 1.259-0.043 0.203 0.022 0.468 0.168 0.685 0.166 0.246 0.415 0.406 0.714 0.429 0.755 0.058 1.682-0.72 2.706-2.477 0.103-0.034 0.212-0.071 0.344-0.116l0.372-0.126c0.235-0.079 0.406-0.136 0.575-0.191 0.731-0.238 1.284-0.389 1.787-0.474 0.874 0.468 1.885 0.775 2.566 0.775 0.562 0 0.941-0.291 1.079-0.75 0.12-0.403 0.025-0.869-0.234-1.127-0.267-0.263-0.759-0.388-1.427-0.41zM12.038 23.927v-0.011l0.004-0.011c0.046-0.118 0.104-0.231 0.175-0.336 0.134-0.206 0.318-0.422 0.546-0.652 0.123-0.123 0.25-0.244 0.4-0.379 0.033-0.030 0.247-0.22 0.287-0.258l0.349-0.325-0.254 0.404c-0.385 0.614-0.733 1.056-1.031 1.344-0.11 0.106-0.206 0.184-0.284 0.235-0.026 0.017-0.053 0.032-0.082 0.044-0.013 0.005-0.024 0.008-0.035 0.009s-0.024-0-0.035-0.005c-0.012-0.005-0.022-0.013-0.029-0.024s-0.011-0.023-0.011-0.036zM15.974 17.106l-0.071 0.125-0.044-0.137c-0.097-0.307-0.168-0.77-0.188-1.187-0.023-0.475 0.015-0.76 0.165-0.76 0.211 0 0.307 0.337 0.315 0.845 0.007 0.446-0.063 0.911-0.178 1.114h0zM15.793 18.933l0.048-0.127 0.065 0.119c0.365 0.664 0.839 1.217 1.361 1.603l0.113 0.083-0.137 0.028c-0.51 0.106-0.986 0.264-1.636 0.527 0.068-0.027-0.676 0.277-0.864 0.349l-0.164 0.063 0.087-0.152c0.386-0.672 0.743-1.479 1.127-2.493h0zM20.718 21.316c-0.246 0.097-0.774 0.010-1.705-0.387l-0.236-0.101 0.256-0.019c0.728-0.054 1.244-0.014 1.544 0.096 0.128 0.047 0.213 0.106 0.251 0.173 0.020 0.032 0.027 0.070 0.019 0.107s-0.030 0.069-0.061 0.090c-0.020 0.017-0.043 0.031-0.068 0.040z"></path>
</symbol>
<symbol id="icon-person" viewBox="0 0 32 32">
<path fill="#784cdb" style="fill: var(--color3, #784cdb)" d="M16 16c-1.467 0-2.722-0.522-3.767-1.567s-1.567-2.3-1.567-3.767c0-1.467 0.522-2.722 1.567-3.767s2.3-1.567 3.767-1.567c1.467 0 2.722 0.522 3.767 1.567s1.567 2.3 1.567 3.767c0 1.467-0.522 2.722-1.567 3.767s-2.3 1.567-3.767 1.567zM5.333 24v-1.067c0-0.756 0.195-1.45 0.584-2.083s0.906-1.116 1.549-1.451c1.378-0.689 2.778-1.205 4.2-1.549s2.867-0.516 4.333-0.517c1.467-0.001 2.911 0.172 4.333 0.517s2.822 0.862 4.2 1.549c0.644 0.333 1.161 0.817 1.551 1.451s0.584 1.328 0.583 2.083v1.067c0 0.733-0.261 1.361-0.783 1.884s-1.15 0.784-1.884 0.783h-16c-0.733 0-1.361-0.261-1.883-0.783s-0.783-1.15-0.784-1.884z"></path>
</symbol>
<symbol id="icon-doc" viewBox="0 0 32 32">
<path fill="#784cdb" style="fill: var(--color3, #784cdb)" d="M16.667 2.667h-7.381c-0.821 0-1.608 0.326-2.189 0.907s-0.907 1.368-0.907 2.189v20.476c0 0.821 0.326 1.608 0.907 2.189s1.368 0.907 2.189 0.907h14.762c0.821 0 1.608-0.326 2.189-0.907s0.907-1.368 0.907-2.189v-13.095h-7.381c-0.821 0-1.608-0.326-2.189-0.907s-0.907-1.368-0.907-2.189v-7.381zM27.012 11.238c-0.147-0.491-0.414-0.938-0.776-1.301l-6.364-6.364c-0.363-0.363-0.81-0.63-1.301-0.777v7.251c0 0.657 0.533 1.19 1.19 1.19h7.251z"></path>
</symbol>
<symbol id="icon-location_bold" viewBox="0 0 32 32">
<path fill="#784cdb" style="fill: var(--color3, #784cdb)" d="M15.016 29.512c0 0-9.683-8.155-9.683-16.179 0-2.829 1.124-5.542 3.124-7.542s4.713-3.124 7.542-3.124c2.829 0 5.542 1.124 7.543 3.124s3.124 4.713 3.124 7.542c0 8.024-9.683 16.179-9.683 16.179-0.539 0.496-1.425 0.491-1.968 0zM16 18c0.613 0 1.22-0.121 1.786-0.355s1.081-0.578 1.514-1.012c0.433-0.433 0.777-0.948 1.012-1.514s0.355-1.173 0.355-1.786c0-0.613-0.121-1.22-0.355-1.786s-0.578-1.081-1.012-1.514c-0.433-0.433-0.948-0.777-1.514-1.012s-1.173-0.355-1.786-0.355c-1.238 0-2.425 0.492-3.3 1.367s-1.367 2.062-1.367 3.3c0 1.238 0.492 2.425 1.367 3.3s2.062 1.367 3.3 1.367z"></path>
</symbol>
<symbol id="icon-calendar" viewBox="0 0 32 32">
<path fill="#784cdb" style="fill: var(--color3, #784cdb)" d="M28 16v9.333c0 0.707-0.281 1.385-0.781 1.886s-1.178 0.781-1.886 0.781h-18.667c-0.707 0-1.386-0.281-1.886-0.781s-0.781-1.178-0.781-1.886v-9.333h24zM21.333 4c0.354 0 0.693 0.14 0.943 0.391s0.391 0.589 0.391 0.943v1.333h2.667c0.707 0 1.385 0.281 1.886 0.781s0.781 1.178 0.781 1.886v4h-24v-4c0-0.707 0.281-1.386 0.781-1.886s1.178-0.781 1.886-0.781h2.667v-1.333c0-0.354 0.14-0.693 0.391-0.943s0.589-0.391 0.943-0.391c0.354 0 0.693 0.14 0.943 0.391s0.391 0.589 0.391 0.943v1.333h8v-1.333c0-0.354 0.141-0.693 0.391-0.943s0.589-0.391 0.943-0.391z"></path>
</symbol>
<symbol id="icon-instagram" viewBox="0 0 32 32">
<path fill="#784cdb" style="fill: var(--color3, #784cdb)" d="M17.371 2.667c1.5 0.004 2.261 0.012 2.919 0.031l0.259 0.009c0.299 0.011 0.593 0.024 0.949 0.040 1.419 0.067 2.387 0.291 3.236 0.62 0.88 0.339 1.621 0.797 2.363 1.537 0.678 0.666 1.203 1.473 1.537 2.363 0.329 0.849 0.553 1.817 0.62 3.237 0.016 0.355 0.029 0.649 0.040 0.949l0.008 0.259c0.020 0.656 0.028 1.417 0.031 2.917l0.001 0.995v1.747c0.003 0.973-0.007 1.945-0.031 2.917l-0.008 0.259c-0.011 0.3-0.024 0.595-0.040 0.949-0.067 1.42-0.293 2.387-0.621 3.237-0.334 0.89-0.859 1.696-1.537 2.363-0.666 0.678-1.473 1.203-2.363 1.537-0.849 0.329-1.817 0.553-3.236 0.62l-0.949 0.040-0.259 0.008c-0.657 0.019-1.419 0.028-2.919 0.031l-2.74 0.001c-0.973 0.003-1.946-0.007-2.919-0.031l-0.259-0.008c-0.317-0.012-0.633-0.026-0.949-0.041-1.419-0.067-2.387-0.291-3.237-0.62-0.89-0.335-1.695-0.859-2.361-1.537-0.679-0.666-1.204-1.473-1.539-2.363-0.329-0.849-0.553-1.817-0.62-3.237l-0.040-0.949-0.007-0.259c-0.025-0.972-0.036-1.945-0.033-2.917v-2.741c-0.004-0.973 0.006-1.945 0.029-2.917l0.009-0.259c0.011-0.3 0.024-0.595 0.040-0.949 0.067-1.42 0.291-2.387 0.62-3.237 0.336-0.89 0.862-1.697 1.541-2.363 0.666-0.678 1.471-1.203 2.36-1.537 0.851-0.329 1.817-0.553 3.237-0.62 0.355-0.016 0.651-0.029 0.949-0.040l0.259-0.008c0.972-0.024 1.945-0.034 2.917-0.031l2.741-0.001zM16 9.333c-1.768 0-3.464 0.702-4.714 1.953s-1.953 2.946-1.953 4.714c0 1.768 0.702 3.464 1.953 4.714s2.946 1.953 4.714 1.953 3.464-0.702 4.714-1.953c1.25-1.25 1.953-2.946 1.953-4.714s-0.702-3.464-1.953-4.714c-1.25-1.25-2.946-1.953-4.714-1.953zM16 12c0.525-0 1.045 0.103 1.531 0.304s0.926 0.495 1.298 0.867c0.371 0.371 0.666 0.812 0.867 1.298s0.305 1.005 0.305 1.531-0.103 1.045-0.304 1.531c-0.201 0.485-0.495 0.926-0.867 1.298s-0.812 0.666-1.298 0.867c-0.485 0.201-1.005 0.305-1.531 0.305-1.061 0-2.078-0.421-2.828-1.172s-1.172-1.768-1.172-2.828c0-1.061 0.421-2.078 1.172-2.828s1.768-1.172 2.828-1.172zM23.001 7.333c-0.442 0-0.866 0.176-1.179 0.488s-0.488 0.736-0.488 1.178c0 0.442 0.176 0.866 0.488 1.178s0.737 0.488 1.179 0.488c0.442 0 0.866-0.176 1.179-0.488s0.488-0.736 0.488-1.178c0-0.442-0.176-0.866-0.488-1.178s-0.737-0.488-1.179-0.488z"></path>
</symbol>
<symbol id="icon-location" viewBox="0 0 32 32">
<path fill="#784cdb" style="fill: var(--color3, #784cdb)" d="M16 15.333c-0.884 0-1.732-0.351-2.357-0.976s-0.976-1.473-0.976-2.357 0.351-1.732 0.976-2.357c0.625-0.625 1.473-0.976 2.357-0.976s1.732 0.351 2.357 0.976c0.625 0.625 0.976 1.473 0.976 2.357 0 0.438-0.086 0.871-0.254 1.276s-0.413 0.772-0.723 1.081c-0.31 0.309-0.677 0.555-1.081 0.723s-0.838 0.254-1.276 0.254zM16 2.667c-2.475 0-4.849 0.983-6.6 2.734s-2.734 4.124-2.734 6.6c0 7 9.333 17.333 9.333 17.333s9.333-10.333 9.333-17.333c0-2.475-0.983-4.849-2.734-6.6s-4.124-2.734-6.6-2.734z"></path>
</symbol>
<symbol id="icon-linkedin" viewBox="0 0 32 32">
<path fill="#784cdb" style="fill: var(--color3, #784cdb)" d="M24.889 2.667c1.179 0 2.309 0.468 3.143 1.302s1.302 1.964 1.302 3.143v17.778c0 1.179-0.468 2.309-1.302 3.143s-1.964 1.302-3.143 1.302h-17.778c-1.179 0-2.309-0.468-3.143-1.302s-1.302-1.964-1.302-3.143v-17.778c0-1.179 0.468-2.309 1.302-3.143s1.964-1.302 3.143-1.302h17.778zM10.074 13.037c-0.393 0-0.77 0.156-1.048 0.434s-0.434 0.655-0.434 1.048v7.407c0 0.393 0.156 0.77 0.434 1.048s0.655 0.434 1.048 0.434c0.393 0 0.77-0.156 1.048-0.434s0.434-0.655 0.434-1.048v-7.407c0-0.393-0.156-0.77-0.434-1.048s-0.655-0.434-1.048-0.434zM14.519 11.556c-0.393 0-0.77 0.156-1.048 0.434s-0.434 0.655-0.434 1.048v8.889c0 0.393 0.156 0.77 0.434 1.048s0.655 0.434 1.048 0.434 0.77-0.156 1.048-0.434c0.278-0.278 0.434-0.655 0.434-1.048v-5.422c0.452-0.51 1.215-1.108 2.064-1.471 0.493-0.21 1.235-0.296 1.751-0.133 0.171 0.043 0.323 0.141 0.434 0.279 0.077 0.104 0.195 0.335 0.195 0.822v5.926c0 0.393 0.156 0.77 0.434 1.048s0.655 0.434 1.047 0.434c0.393 0 0.77-0.156 1.048-0.434s0.434-0.655 0.434-1.048v-5.926c0-0.993-0.252-1.876-0.776-2.584-0.483-0.642-1.158-1.113-1.927-1.344-1.336-0.419-2.816-0.187-3.805 0.237-0.316 0.136-0.624 0.29-0.923 0.462-0.062-0.341-0.242-0.65-0.508-0.872s-0.602-0.344-0.949-0.344zM10.074 8.593c-0.393 0-0.77 0.156-1.048 0.434s-0.434 0.655-0.434 1.048c0 0.393 0.156 0.77 0.434 1.048s0.655 0.434 1.048 0.434c0.393 0 0.77-0.156 1.048-0.434s0.434-0.655 0.434-1.048c0-0.393-0.156-0.77-0.434-1.048s-0.655-0.434-1.048-0.434z"></path>
</symbol>
<symbol id="icon-telegram" viewBox="0 0 32 32">
<path fill="#784cdb" style="fill: var(--color3, #784cdb)" d="M16 2.667c-7.36 0-13.333 5.973-13.333 13.333s5.973 13.333 13.333 13.333c7.36 0 13.333-5.973 13.333-13.333s-5.973-13.333-13.333-13.333zM22.187 11.733c-0.2 2.107-1.067 7.227-1.507 9.587-0.187 1-0.56 1.333-0.907 1.373-0.773 0.067-1.36-0.507-2.107-1-1.173-0.773-1.84-1.253-2.973-2-1.32-0.867-0.467-1.347 0.293-2.12 0.2-0.2 3.613-3.307 3.68-3.587 0.009-0.042 0.008-0.086-0.004-0.128s-0.033-0.080-0.063-0.112c-0.080-0.067-0.187-0.040-0.28-0.027-0.12 0.027-1.987 1.267-5.627 3.72-0.533 0.36-1.013 0.547-1.44 0.533-0.48-0.013-1.387-0.267-2.067-0.493-0.84-0.267-1.493-0.413-1.44-0.88 0.027-0.24 0.36-0.48 0.987-0.733 3.893-1.693 6.48-2.813 7.773-3.347 3.707-1.547 4.467-1.813 4.973-1.813 0.107 0 0.36 0.027 0.52 0.16 0.133 0.107 0.173 0.253 0.187 0.36-0.013 0.080 0.013 0.32 0 0.507z"></path>
</symbol>
<symbol id="icon-email" viewBox="0 0 32 32">
<path fill="#784cdb" style="fill: var(--color3, #784cdb)" d="M26.667 5.333h-21.333c-1.467 0-2.653 1.2-2.653 2.667l-0.013 16c0 1.467 1.2 2.667 2.667 2.667h21.333c1.467 0 2.667-1.2 2.667-2.667v-16c0-1.467-1.2-2.667-2.667-2.667zM26.133 11l-9.427 5.893c-0.427 0.267-0.987 0.267-1.413 0l-9.427-5.893c-0.134-0.075-0.251-0.176-0.344-0.298s-0.161-0.261-0.199-0.409c-0.038-0.149-0.045-0.303-0.022-0.455s0.078-0.297 0.159-0.427c0.081-0.13 0.188-0.242 0.314-0.33s0.268-0.149 0.418-0.18c0.15-0.031 0.305-0.031 0.455-0s0.293 0.091 0.419 0.179l8.933 5.587 8.933-5.587c0.126-0.087 0.269-0.148 0.419-0.179s0.305-0.030 0.455 0 0.293 0.092 0.418 0.18c0.126 0.088 0.233 0.2 0.314 0.33s0.135 0.275 0.159 0.427c0.024 0.152 0.016 0.306-0.022 0.455s-0.106 0.288-0.199 0.409c-0.093 0.122-0.21 0.223-0.344 0.298z"></path>
</symbol>
</defs>
</svg>
