<svg width="58" height="82" viewBox="0 0 58 82" fill="none" xmlns="http://www.w3.org/2000/svg">
<path d="M31.8143 4.36786C35.7502 1.39842 39.701 0.33095 43.0595 2.05057C45.291 3.19335 46.9629 5.4201 48.1005 8.37164C49.2371 11.3212 49.8582 15.0373 49.9782 19.2511C50.2182 27.682 48.4544 38.2186 44.6492 48.8763C40.8439 59.5339 35.7017 68.3406 30.446 73.9573C27.8192 76.7644 25.1466 78.7923 22.5808 79.8458C20.013 80.9 17.5142 80.9912 15.2827 79.8487C12.243 78.292 10.2449 74.7347 9.20814 70.039C8.1969 65.458 8.07205 59.6851 8.82525 53.3097C8.85911 53.0232 9.13724 52.8316 9.41739 52.9006C9.65459 52.9591 9.80968 53.1866 9.78085 53.4292C9.02303 59.7687 9.15392 65.4428 10.1334 69.8797C11.1379 74.4295 13.0062 77.5685 15.6183 78.9063C17.5378 79.8893 19.7628 79.8552 22.1803 78.8627C24.5998 77.8692 27.1758 75.9284 29.752 73.1754C34.903 67.6705 39.9863 58.9856 43.7586 48.4207C47.5307 37.8558 49.2624 27.4542 49.0272 19.1911C48.9096 15.0586 48.3008 11.4869 47.2291 8.70564C46.1582 5.92693 44.6423 3.97609 42.723 2.9931C39.8352 1.51457 36.2451 2.34614 32.3983 5.24852C28.7116 8.03019 24.8896 12.6475 21.4058 18.6237C22.4054 19.1095 23.1544 20.0666 23.3252 21.2494C23.5987 23.145 22.2834 24.9035 20.3876 25.1772C18.4917 25.4509 16.7327 24.1364 16.4589 22.2408C16.1851 20.3451 17.5004 18.5857 19.3963 18.3119C19.7429 18.2619 20.085 18.2659 20.4142 18.3159C20.4213 18.3006 20.4275 18.2842 20.4361 18.2693C23.999 12.0994 27.9524 7.28165 31.8143 4.36786Z" fill="url(#paint0_radial_1024_84525)"/>
<defs>
<radialGradient id="paint0_radial_1024_84525" cx="0" cy="0" r="1" gradientTransform="matrix(37.1051 48.3241 -26.561 51.4229 11.3424 17.9886)" gradientUnits="userSpaceOnUse">
<stop offset="0.0138435" stop-color="#FFFDA3"/>
<stop offset="0.603536" stop-color="#E3BB09"/>
<stop offset="1" stop-color="#FFA60C"/>
</radialGradient>
</defs>
</svg>
